# AST/ASF file generated using VICON BodyLanguage
# -----------------------------------------------
:version 1.10
:name VICON
:units
  mass 1.0
  length 0.45
  angle deg
:documentation
   .ast/.asf automatically generated from VICON data using
   VICON BodyBuilder and BodyLanguage model FoxedUp or BRILLIANT.MOD
:root
   order TX TY TZ RX RY RZ
   axis XYZ
   position 0 0 0  
   orientation 0 0 0 
:bonedata
  begin
     id 1 
     name lhipjoint
     direction 0.541323 -0.757556 0.364798 
     length 2.47576 
     axis 0 0 0  XYZ
  end
  begin
     id 2 
     name lfemur
     direction 0.34202 -0.939693 0  
     length 7.46493  
     axis 0 0 20  XYZ
    dof rx ry rz
    limits (-160.0 20.0)
           (-70.0 70.0)
           (-60.0 70.0)
  end
  begin
     id 3 
     name ltibia
     direction 0.34202 -0.939693 0   
     length 7.73805   
     axis 0 0 20   XYZ
    dof rx
    limits (-10.0 170.0)
  end
  begin
     id 4 
     name lfoot
     direction 0.107174 -0.294458 0.949636   
     length 2.25864   
     axis -90 7.62852e-016 20   XYZ
    dof rx rz
    limits (-45.0 90.0)
           (-70.0 20.0)
  end
  begin
     id 5 
     name ltoes
     direction 1.53606e-011 -4.21934e-011 1   
     length 1.12451   
     axis -90 7.62852e-016 20   XYZ
    dof rx
    limits (-90.0 20.0)
  end
  begin
     id 6 
     name rhipjoint
     direction -0.524745 -0.766967 0.36933   
     length 2.44538  
     axis 0 0 0  XYZ 
  end
  begin
     id 7 
     name rfemur
     direction -0.34202 -0.939693 0   
     length 7.61604   
     axis 0 0 -20   XYZ
    dof rx ry rz
    limits (-160.0 20.0)
           (-70.0 70.0)
           (-70.0 60.0)
  end
  begin
     id 8 
     name rtibia
     direction -0.34202 -0.939693 0   
     length 7.61056   
     axis 0 0 -20   XYZ
    dof rx
    limits (-10.0 170.0)
 end
 begin
     id 9 
     name rfoot
     direction -0.12616 -0.346623 0.929482   
     length 2.46372  
     axis -90 -7.62852e-016 -20   XYZ
    dof rx rz
    limits (-45.0 90.0)
           (-20.0 70.0)
  end
  begin
     id 10 
     name rtoes
     direction -1.53531e-011 -4.22004e-011 1   
     length 1.21611   
     axis -90 -7.62852e-016 -20   XYZ
    dof rx
    limits (-90.0 20.0)
  end
  begin
     id 11 
     name lowerback
     direction -0.000778023 0.997293 -0.0735223   
     length 2.06139   
     axis 0 0 0   XYZ
    dof rx ry rz
    limits (-20.0 45.0)
           (-30.0 30.0)
           (-30.0 30.0)
  end
  begin
     id 12 
     name upperback
     direction 0.0222598 0.999722 -0.0078355   
     length 2.06383   
     axis 0 0 0   XYZ
    dof rx ry rz
    limits (-20.0 45.0)
           (-30.0 30.0)
           (-30.0 30.0)
  end
  begin
     id 13 
     name thorax
     direction 0.0219654 0.999405 0.0265994   
     length 2.07163   
     axis 0 0 0   XYZ
    dof rx ry rz
    limits (-20.0 45.0)
           (-30.0 30.0)
           (-30.0 30.0)
  end
  begin
     id 14 
     name lowerneck
     direction 0.0213282 0.988147 0.15202   
     length 1.75969   
     axis 0 0 0   XYZ
    dof rx ry rz
    limits (-20.0 45.0)
           (-30.0 30.0)
           (-30.0 30.0)
  end
  begin
     id 15 
     name upperneck
     direction -0.0546456 0.982624 -0.177379   
     length 1.79244   
     axis 0 0 0   XYZ
    dof rx ry rz
    limits (-20.0 45.0)
           (-30.0 30.0)
           (-30.0 30.0)
  end
  begin
     id 16
     name head
     direction -0.0199987 0.996855 -0.076686  
     length 1.80555  
     axis 0 0 0   XYZ
    dof rx ry rz
    limits (-20.0 45.0)
           (-30.0 30.0)
           (-30.0 30.0)
  end
  begin
     id 17 
     name lclavicle
     direction 0.929565 0.363219 -0.063096  
     length 3.55722  
     axis 0 0 0   XYZ
    dof ry rz
    limits (-20.0 10.0)
           (0.0 20.0)
  end
  begin
     id 18 
     name lhumerus
     direction 1 -4.48993e-011 -2.36203e-027   
     length 4.92785   
     axis 180 -30 -90   XYZ
    dof rx ry rz
    limits (-60.0 90.0)
           (-90.0 90.0)
           (-90.0 90.0)
  end
  begin
     id 19
     name lradius
     direction 1 -4.48947e-011 2.02997e-027   
     length 3.44052   
     axis 180 -30 -90   XYZ
    dof rx
    limits (-10.0 170.0)
  end
  begin
     id 20
     name lwrist
     direction 1 -4.48962e-011 1.45991e-027   
     length 1.72026   
     axis 1.49639e-024 90 90   XYZ
    dof ry
    limits (-180.0 0.0)
 end
  begin
     id 21 
     name lhand
     direction 1 -4.48984e-011 2.91906e-027   
     length 0.654326   
     axis -1.863e-015 90 90   XYZ
    dof rx rz
    limits (-90.0 90.0)
           (-45.0 45.0)
  end
  begin
     id 22 
     name lfingers
     direction 1 -4.48961e-011 5.83968e-027   
     length 0.527534   
     axis -3.72598e-015 90 90   XYZ
    dof rx
    limits (0.0 90.0)
  end
  begin
     id 23
     name lthumb
     direction 0.707107 -6.34963e-011 0.707107   
     length 0.757437   
     axis -90 45 -6.68868e-015   XYZ
    dof rx rz
    limits (-45.0 45.0)
           (-45.0 45.0)
  end
  begin
     id 24 
     name rclavicle
     direction -0.902944 0.422599 -0.0781198   
     length 3.54432  
     axis 0 0 0   XYZ 
    dof ry rz
    limits (-10.0 20.0)
           (-20.0 0.0)
  end
  begin
     id 25 
     name rhumerus
     direction -1 -4.48953e-011 -4.75835e-028  
     length 5.09181   
     axis 180 30 90   XYZ
    dof rx ry rz
    limits (-90.0 60.0)
           (-90.0 90.0)
           (-90.0 90.0)
  end
  begin
     id 26 
     name rradius
     direction -1 -4.48986e-011 -3.25889e-027   
     length 3.49865   
     axis 180 30 90   XYZ
    dof rx
    limits (-10.0 170.0)
  end
  begin
     id 27 
     name rwrist
     direction -1 -4.48963e-011 1.45989e-027   
     length 1.74933   
     axis 1.49639e-024 -90 -90   XYZ
    dof ry
    limits (-180.0 0.0)
  end
  begin
     id 28
     name rhand
     direction -1 -4.49003e-011 2.91844e-027   
     length 0.66641   
     axis -1.863e-015 -90 -90   XYZ
    dof rx rz
    limits (-90.0 90.0)
           (-45.0 45.0)
  end
  begin
     id 29
     name rfingers
     direction -1 -4.48973e-011 5.83886e-027   
     length 0.537277   
     axis -3.72598e-015 -90 -90   XYZ
    dof rx
    limits (0.0 90.0)
  end
  begin
     id 30
     name rthumb
     direction -0.707107 -6.34976e-011 0.707107   
     length 0.771425   
     axis -90 -45 6.68868e-015   XYZ
    dof rx rz
    limits (-45.0 45.0)
           (-45.0 45.0)
  end
:hierarchy
  begin
    root lhipjoint rhipjoint lowerback
    lhipjoint lfemur
    lfemur ltibia
    ltibia lfoot
    lfoot ltoes
    rhipjoint rfemur
    rfemur rtibia
    rtibia rfoot
    rfoot rtoes
    lowerback upperback
    upperback thorax
    thorax lowerneck lclavicle rclavicle
    lowerneck upperneck
    upperneck head
    lclavicle lhumerus
    lhumerus lradius
    lradius lwrist
    lwrist lhand lthumb
    lhand lfingers
    rclavicle rhumerus
    rhumerus rradius
    rradius rwrist
    rwrist rhand rthumb
    rhand rfingers
  end

#!OML:ASF H:\LiuWeirdWalks\Patient Classification 1\Patient 1\Session 1\male.ASF
:FULLY-SPECIFIED
:DEGREES
46
root 1.07399 17.7786 -29.3733 -1.05475 4.90279 -0.134249
lowerback 7.02016 -1.28983 -7.34948
upperback -1.00888 -2.20387 3.44016
thorax -4.59868 -0.853356 8.03335
lowerneck -19.4741 2.80122 8.31176
upperneck 26.5726 3.18674 -6.45213
head 12.2509 1.42556 -3.34446
rclavicle -6.57465e-015 1.27222e-014
rhumerus -40.0927 -8.75363 -69.7975
rradius 32.938
rwrist -8.63669
rhand -17.5168 2.35839
rfingers 7.12502
rthumb 8.73665 -27.4408
lclavicle -6.57465e-015 1.27222e-014
lhumerus -37.1422 6.38038 82.2284
lradius 27.2642
lwrist -0.672909
lhand -12.5018 -1.28839
lfingers 7.12502
lthumb 13.5734 28.2492
rfemur -17.6665 -9.504 12.5832
rtibia 74.3852
rfoot 10.1213 -8.65448
rtoes -1.7388
lfemur -2.87963 1.82342 -26.7402
ltibia 24.2108
lfoot -13.3023 14.8763
ltoes -5.10381
47
root 1.07383 17.7789 -29.3723 -1.03764 4.86665 -0.158547
lowerback 7.03242 -1.61653 -7.44418
upperback -1.03847 -2.63779 3.73687
thorax -4.53652 -1.06578 8.45234
lowerneck -19.961 2.90508 8.3549
upperneck 27.4501 3.64333 -7.49356
head 12.7658 1.49364 -3.71093
rclavicle 1.73036e-014 -3.26007e-014
rhumerus -39.6384 -7.57488 -69.8779
rradius 32.712
rwrist -8.63147
rhand -17.5139 2.31821
rfingers 7.12502
rthumb 8.73943 -27.4809
lclavicle 1.73036e-014 -3.26007e-014
lhumerus -37.4468 7.58909 82.1818
lradius 27.5234
lwrist -0.502409
lhand -12.4652 -1.23921
lfingers 7.12502
lthumb 13.6087 28.296
rfemur -17.6955 -9.37215 12.6286
rtibia 74.451
rfoot 10.1621 -8.63943
rtoes -1.75913
lfemur -2.91341 1.77272 -26.7403
ltibia 24.2398
lfoot -13.2735 15.0095
ltoes -5.10298
48
root 1.07393 17.7788 -29.3719 -1.01697 4.81743 -0.180234
lowerback 7.04357 -1.7645 -7.46093
upperback -1.05249 -2.83213 3.88029
thorax -4.51126 -1.1615 8.63686
lowerneck -20.2122 2.94211 8.37996
upperneck 27.8675 3.8555 -8.01527
head 13.0224 1.51792 -3.90222
rclavicle -4.60435e-014 2.54444e-014
rhumerus -39.3979 -7.05348 -69.889
rradius 32.5128
rwrist -8.56064
rhand -17.5083 2.30384
rfingers 7.12502
rthumb 8.74487 -27.495
lclavicle -4.60435e-014 2.54444e-014
lhumerus -37.5733 8.11002 82.2
lradius 27.7478
lwrist -0.250639
lhand -12.4239 -1.13591
lfingers 7.12502
lthumb 13.6484 28.3966
rfemur -17.7367 -9.23109 12.6689
rtibia 74.5136
rfoot 10.2096 -8.60717
rtoes -1.80646
lfemur -2.95838 1.7139 -26.7472
ltibia 24.2822
lfoot -13.2487 15.16
ltoes -5.08776
49
root 1.07423 17.7782 -29.3719 -0.991717 4.74918 -0.202361
lowerback 7.05022 -1.73977 -7.43731
upperback -1.06854 -2.79688 3.89488
thorax -4.53951 -1.14224 8.63698
lowerneck -20.1371 2.956 8.36857
upperneck 27.8041 3.86882 -7.97292
head 12.9808 1.52932 -3.8784
rclavicle 5.37029e-015 7.95139e-015
rhumerus -39.4028 -7.11931 -69.8252
rradius 32.3602
rwrist -8.44783
rhand -17.4973 2.31265
rfingers 7.12502
rthumb 8.75549 -27.4857
lclavicle 5.37029e-015 7.95139e-015
lhumerus -37.5726 7.99578 82.2879
lradius 27.9254
lwrist 0.0174038
lhand -12.4238 -1.12546
lfingers 7.12502
lthumb 13.6486 28.4071
rfemur -17.7915 -9.07543 12.7089
rtibia 74.5723
rfoot 10.2591 -8.55474
rtoes -1.84479
lfemur -3.01608 1.65326 -26.7553
ltibia 24.3367
lfoot -13.2326 15.322
ltoes -5.04323
50
root 1.07459 17.7775 -29.3719 -0.967516 4.65957 -0.23821
lowerback 7.05673 -1.518 -7.32732
upperback -1.06971 -2.49649 3.75612
thorax -4.61516 -0.992872 8.39506
lowerneck -19.8311 2.8969 8.30239
upperneck 27.2974 3.60442 -7.33966
head 12.6689 1.4926 -3.6423
rclavicle 1.08563e-014 0
rhumerus -39.6645 -7.8639 -69.6888
rradius 32.2714
rwrist -8.3047
rhand -17.4842 2.32429
rfingers 7.12502
rthumb 8.76814 -27.4736
lclavicle 1.08563e-014 0
lhumerus -37.3916 7.15294 82.454
lradius 28.0626
lwrist 0.363228
lhand -12.4439 -1.15895
lfingers 7.12502
lthumb 13.6292 28.3749
rfemur -17.8501 -8.89974 12.7662
rtibia 74.6212
rfoot 10.3059 -8.50154
rtoes -1.84513
lfemur -3.07764 1.59504 -26.7474
ltibia 24.3983
lfoot -13.224 15.4903
ltoes -4.98023
51
root 1.07489 17.7767 -29.3718 -0.944775 4.56708 -0.267698
lowerback 7.06981 -1.12396 -7.13605
upperback -1.06242 -1.96588 3.45984
thorax -4.73461 -0.731579 7.91223
lowerneck -19.3001 2.77967 8.23471
upperneck 26.3503 3.10939 -6.19372
head 12.1156 1.41753 -3.23814
rclavicle -8.41263e-015 -2.22639e-014
rhumerus -40.1743 -9.22986 -69.4892
rradius 32.2417
rwrist -8.12922
rhand -17.4653 2.34713
rfingers 7.12502
rthumb 8.78636 -27.45
lclavicle -8.41263e-015 -2.22639e-014
lhumerus -37.0641 5.63264 82.6688
lradius 28.1683
lwrist 0.78304
lhand -12.4653 -1.17238
lfingers 7.12502
lthumb 13.6086 28.3628
rfemur -17.9011 -8.72346 12.8145
rtibia 74.6599
rfoot 10.3404 -8.45165
rtoes -1.85474
lfemur -3.13391 1.55511 -26.741
ltibia 24.4587
lfoot -13.2287 15.6351
ltoes -4.9133
52
root 1.07506 17.7758 -29.3711 -0.935206 4.47127 -0.304358
lowerback 7.09387 -0.80384 -6.9439
upperback -1.04381 -1.53318 3.20893
thorax -4.82014 -0.521471 7.48671
lowerneck -18.8831 2.67138 8.18821
upperneck 25.5389 2.7061 -5.27576
head 11.6698 1.34798 -2.92573
rclavicle -5.03717e-015 0
rhumerus -40.5722 -10.3414 -69.342
rradius 32.2037
rwrist -7.98052
rhand -17.4504 2.37434
rfingers 7.12502
rthumb 8.8007 -27.4222
lclavicle -5.03717e-015 0
lhumerus -36.7896 4.3732 82.8305
lradius 28.3031
lwrist 1.18906
lhand -12.4774 -1.23658
lfingers 7.12502
lthumb 13.5969 28.2994
rfemur -17.9294 -8.54361 12.871
rtibia 74.6845
rfoot 10.3585 -8.4132
rtoes -1.91146
lfemur -3.16953 1.5511 -26.7163
ltibia 24.5083
lfoot -13.2397 15.7418
ltoes -4.86302
53
root 1.07505 17.7749 -29.3701 -0.930857 4.3872 -0.324008
lowerback 7.12663 -0.538186 -6.77097
upperback -1.01439 -1.17466 2.98255
thorax -4.87871 -0.349573 7.1059
lowerneck -18.618 2.57663 8.1858
upperneck 24.8863 2.36709 -4.54025
head 11.3349 1.28311 -2.68955
rclavicle -1.33698e-014 8.34896e-015
rhumerus -40.8775 -11.2897 -69.2342
rradius 32.1541
rwrist -7.84746
rhand -17.4458 2.38693
rfingers 7.12502
rthumb 8.80516 -27.4094
lclavicle -1.33698e-014 8.34896e-015
lhumerus -36.5377 3.29966 82.953
lradius 28.4511
lwrist 1.58079
lhand -12.4713 -1.31627
lfingers 7.12502
lthumb 13.6028 28.2193
rfemur -17.9409 -8.38014 12.9049
rtibia 74.6987
rfoot 10.3639 -8.39662
rtoes -1.99121
lfemur -3.18818 1.57876 -26.6998
ltibia 24.5407
lfoot -13.2515 15.7996
ltoes -4.84467
54
root 1.07502 17.7736 -29.3687 -0.935207 4.32914 -0.316477
lowerback 7.15672 -0.408158 -6.69129
upperback -0.973422 -1.00063 2.86243
thorax -4.88522 -0.268106 6.91223
lowerneck -18.5436 2.52441 8.17935
upperneck 24.548 2.19364 -4.18165
head 11.1772 1.24487 -2.576
rclavicle 2.96469e-015 2.78299e-015
rhumerus -40.9685 -11.7878 -69.1846
rradius 32.0615
rwrist -7.73603
rhand -17.447 2.39318
rfingers 7.12502
rthumb 8.80401 -27.4032
lclavicle 2.96469e-015 2.78299e-015
lhumerus -36.3687 2.73522 83.0325
lradius 28.619
lwrist 1.93296
lhand -12.4382 -1.39005
lfingers 7.12502
lthumb 13.6347 28.1434
rfemur -17.9242 -8.24912 12.9
rtibia 74.7033
rfoot 10.3563 -8.40416
rtoes -2.11627
lfemur -3.18515 1.63227 -26.7031
ltibia 24.5576
lfoot -13.2624 15.8038
ltoes -4.86968
